<?xml version="1.0" encoding="UTF-8" standalone="no"?>
<!-- Created with Inkscape (http://www.inkscape.org/) -->

<svg
   xmlns:dc="http://purl.org/dc/elements/1.1/"
   xmlns:cc="http://creativecommons.org/ns#"
   xmlns:rdf="http://www.w3.org/1999/02/22-rdf-syntax-ns#"
   xmlns:svg="http://www.w3.org/2000/svg"
   xmlns="http://www.w3.org/2000/svg"
   xmlns:sodipodi="http://sodipodi.sourceforge.net/DTD/sodipodi-0.dtd"
   xmlns:inkscape="http://www.inkscape.org/namespaces/inkscape"
   id="svg2"
   version="1.1"
   inkscape:version="0.47 r22583"
   width="212.79326"
   height="273.7049"
   sodipodi:docname="Pakistan Navy emblem.svg">
  <metadata
     id="metadata8">
    <rdf:RDF>
      <cc:Work
         rdf:about="">
        <dc:format>image/svg+xml</dc:format>
        <dc:type
           rdf:resource="http://purl.org/dc/dcmitype/StillImage" />
        <dc:title />
      </cc:Work>
    </rdf:RDF>
  </metadata>
  <defs
     id="defs6">
    <inkscape:perspective
       sodipodi:type="inkscape:persp3d"
       inkscape:vp_x="0 : 0.5 : 1"
       inkscape:vp_y="0 : 1000 : 0"
       inkscape:vp_z="1 : 0.5 : 1"
       inkscape:persp3d-origin="0.5 : 0.33333333 : 1"
       id="perspective10" />
  </defs>
  <sodipodi:namedview
     pagecolor="#ffffff"
     bordercolor="#666666"
     borderopacity="1"
     objecttolerance="10"
     gridtolerance="10"
     guidetolerance="10"
     inkscape:pageopacity="0"
     inkscape:pageshadow="2"
     inkscape:window-width="1024"
     inkscape:window-height="691"
     id="namedview4"
     showgrid="false"
     inkscape:zoom="1.6039172"
     inkscape:cx="106.39663"
     inkscape:cy="136.85244"
     inkscape:window-x="0"
     inkscape:window-y="25"
     inkscape:window-maximized="1"
     inkscape:current-layer="svg2" />
  <path
     style="fill:#000055"
     d="m 16.533585,272.10481 c -0.32997,-0.85991 -0.59996,-2.3832 -0.59996,-3.38508 0,-1.00189 -3.18195,-8.11592 -7.0709901,-15.80897 C 0.55838493,236.48388 -1.1340551,229.56647 0.63059493,219.26451 3.4242949,202.95502 12.953035,194.22988 29.323075,192.99182 c 10.11062,-0.76467 20.74155,1.61456 41.11055,9.20065 16.85629,6.27784 29.09769,9.51244 35.999995,9.51244 6.92791,0 19.16613,-3.22952 36.04549,-9.51197 9.37502,-3.48935 20.82448,-7.11 25.44324,-8.04588 26.02382,-5.2731 43.17367,5.57836 44.73129,28.30345 0.69114,10.08364 -1.01773,16.09619 -8.88307,31.2544 -3.28194,6.325 -6.22211,13.4125 -6.53372,15.75 -0.31161,2.3375 -0.95602,4.25 -1.43202,4.25 -1.74164,0 -8.71301,-7.14685 -10.36291,-10.62375 -0.9335,-1.96722 -2.03999,-7.33678 -2.45886,-11.93236 -0.46224,-5.07149 -1.43625,-9.38529 -2.47811,-10.97538 -1.54887,-2.36386 -2.12461,-2.55318 -5.89394,-1.93807 -2.29756,0.37494 -11.1368,2.91543 -19.64276,5.64553 -26.54056,8.51857 -30.43009,9.26072 -48.53463,9.26072 -18.087245,0 -21.583995,-0.67197 -48.774665,-9.37303 -20.97566,-6.71224 -23.05221,-7.0206 -25.20034,-3.74215 -1.00673,1.53648 -2.00101,6.09263 -2.50722,11.48904 -0.9019,9.61477 -2.23426,13.13322 -6.64259,17.54155 -4.05371,4.05371 -6.0454,4.94966 -6.77522,3.0478 z m 3.21426,-17.64923 c 0.21723,-7.8818 3.28654,-14.23909 8.18578,-16.95475 5.54665,-3.07452 19.1247,-2.02069 35,2.71644 24.75241,7.38603 28.92346,8.48401 36.09127,9.50058 10.025325,1.42185 19.692675,-0.0657 39.552725,-6.08621 22.06806,-6.68984 27.61001,-7.89533 36.356,-7.90821 5.69922,-0.008 8.27065,0.45885 10.70966,1.94599 4.32273,2.6357 7.24484,8.74244 7.98717,16.69189 l 0.61384,6.57337 2.33954,-3.86489 c 3.00345,-4.96164 3.17087,-12.50598 0.37914,-17.08464 -1.07974,-1.77086 -3.80085,-4.55096 -6.0469,-6.17799 -10.03052,-7.26607 -22.39221,-6.1567 -58.48245,5.24839 -19.78735,6.25312 -24.01834,7.00604 -31.62178,5.62728 -3.443035,-0.62435 -13.936655,-3.57832 -23.319145,-6.56438 -29.61831,-9.42631 -42.7243,-11.02615 -51.97175,-6.34416 -10.36824,5.24945 -14.18842,14.926 -9.61904,24.36508 1.21557,2.51105 2.53944,4.56554 2.94192,4.56554 0.40249,0 0.80929,-2.8122 0.90402,-6.24933 z m 80.387945,-14.60456 c -1.020465,-0.64733 -1.079785,-2.17722 -0.277545,-7.15865 0.561145,-3.48445 1.520405,-6.64447 2.131665,-7.02225 0.73062,-0.45155 0.54073,-0.90587 -0.55423,-1.32605 -2.308485,-0.88585 -7.262825,-0.77959 -5.882035,0.12615 1.46813,0.96303 -0.35955,14.19262 -1.98031,14.33437 -1.61445,0.1412 3.44837,1.68358 5.86029,1.78533 1.416585,0.0598 1.621405,-0.15579 0.702165,-0.7389 z m 18.38979,-1.64611 c 1.51741,-2.31587 1.51741,-2.68413 0,-5 -0.90094,-1.375 -2.25284,-2.5 -3.00423,-2.5 -0.75139,0 -2.42851,-0.89086 -3.72695,-1.97968 -2.01478,-1.68955 -2.14094,-2.12698 -0.86078,-2.98469 2.13955,-1.4335 2.66587,-1.30687 5.04747,1.21437 l 2.12537,2.25 -0.33642,-2.40948 c -0.54576,-3.90879 -7.76726,-3.95678 -9.84983,-0.0655 -1.43129,2.67439 -0.18882,4.65719 4.60241,7.34475 2.15105,1.2066 3.911,2.84834 3.911,3.64831 0,2.38554 -3.50385,2.32689 -6.08921,-0.10193 -2.32845,-2.18743 -2.41079,-2.19621 -2.41079,-0.25713 0,2.82089 0.80071,3.34098 5.14361,3.34098 2.96082,0 4.17547,-0.55735 5.44835,-2.5 z m -35.062165,-6.2319 -2.33199,-5.73191 3.01591,-1.26809 c 1.65875,-0.69746 3.63925,-1.2681 4.4011,-1.2681 2.36392,0 1.52061,-1.74096 -1.08455,-2.23897 -1.35835,-0.25966 -2.22597,-0.0777 -1.92803,0.40438 0.45782,0.74076 -5.30087,3.83459 -7.1375,3.83459 -0.93146,0 0.67229,-4.41511 1.88617,-5.19258 0.63159,-0.40453 -0.0754,-1.13238 -1.69988,-1.75 -3.66066,-1.39178 -4.69444,-1.33415 -4.09488,0.22828 0.87069,2.26897 -3.08241,13.24755 -4.64239,12.89287 -0.92024,-0.20922 -1.06467,0.008 -0.41375,0.62089 0.55,0.51828 2.2375,1.234 3.75,1.59048 2.38001,0.56096 2.75206,0.34288 2.76532,-1.62089 0.008,-1.24798 0.39928,-2.87492 0.86857,-3.61542 0.62371,-0.98416 1.15444,-0.48245 1.97272,1.86487 0.61569,1.76618 0.87092,3.61335 0.56717,4.10483 -0.30375,0.49147 0.48914,1.31126 1.76198,1.82174 4.47613,1.79521 4.75269,1.24339 2.34403,-4.67697 z m 53.470205,2.64135 c 0.83509,-0.47246 0.98153,-0.86211 0.33037,-0.87904 -0.6433,-0.0167 -1.94635,-2.39291 -2.89566,-5.28041 -0.94931,-2.8875 -1.93362,-5.8125 -2.18736,-6.5 -0.59377,-1.60886 2.95481,-1.64784 4.55265,-0.05 1.39211,1.39211 1.58469,-0.044 0.28184,-2.10183 -1.31162,-2.07164 -14.08184,1.62863 -14.08184,4.08032 0,2.57408 1.69665,3.08953 2.32024,0.70491 0.30119,-1.15176 1.13201,-1.89932 1.84625,-1.66124 1.53229,0.51077 5.09824,11.54049 4.20063,12.99284 -0.65477,1.05945 2.91507,0.23205 5.63288,-1.30555 z m 14.50206,-4.54861 c 1.22759,-0.47107 1.34227,-0.83902 0.43607,-1.39908 -0.67626,-0.41795 -0.94155,-1.51046 -0.58953,-2.42781 0.86581,-2.25627 6.20175,-1.71715 6.03031,0.60927 -0.10114,1.37238 0.39225,1.496 2.9934,0.75 1.71297,-0.49127 3.22996,-0.89322 3.37109,-0.89322 0.14113,0 -0.5309,-0.79283 -1.4934,-1.76186 -0.9625,-0.96902 -3.49171,-3.89402 -5.62046,-6.5 -4.29343,-5.25593 -5.61934,-5.83979 -5.65038,-2.48814 -0.0115,1.2375 -0.6102,5.0625 -1.33054,8.5 -1.3216,6.30681 -1.16845,6.77044 1.85344,5.61084 z m -0.10905,-7.94263 c 0.33385,-0.86998 0.60699,-1.82508 0.60699,-2.12244 0,-0.29736 0.675,0.0195 1.5,0.70423 2.11446,1.75484 1.86252,3 -0.60699,3 -1.51045,0 -1.93514,-0.44784 -1.5,-1.58179 z m -89.847355,5.33179 c -0.27085,-1.2375 -0.95269,-4.91077 -1.5152,-8.16281 -0.9637,-5.57151 -1.64134,-7.46408 -2.32871,-6.50386 -1.93991,2.70997 -9.38193,11.49676 -9.95174,11.75 -1.52439,0.67751 -0.68683,2.16667 1.21862,2.16667 1.27577,0 1.77969,-0.49232 1.43182,-1.39885 -0.73701,-1.92064 1.00276,-2.78904 4.05357,-2.02334 2.63592,0.66158 3.68764,4.33115 1.29599,4.52187 -0.6875,0.0548 -0.125,0.45997 1.25,0.90032 4.28975,1.37382 5.07279,1.15849 4.54565,-1.25 z m -7.54565,-5.72915 c -1.31188,-0.82957 -1.28053,-1.16804 0.25,-2.69897 1.66678,-1.66721 1.75,-1.62137 1.75,0.96383 0,3.061 0.0408,3.02562 -2,1.73514 z m -20.75,2.31687 c -0.6875,-0.27741 -1.25,-1.81689 -1.25,-3.42105 0,-2.1283 0.48046,-2.91667 1.7775,-2.91667 2.67541,0 6.2225,-2.86248 6.2225,-5.02152 0,-2.49218 -2.91164,-3.97848 -7.79379,-3.97848 l -3.92527,0 -0.18212,7.21673 c -0.11017,4.36554 -0.65952,7.52013 -1.39047,7.98468 -0.66459,0.42238 0.81665,0.73933 3.29165,0.70433 2.475,-0.035 3.9375,-0.29061 3.25,-0.56802 z m -0.80197,-10.98668 c 0.91962,-3.66405 1.44369,-4.13119 2.60509,-2.32208 1.37793,2.14639 0.70096,4.39472 -1.44785,4.80854 -1.59911,0.30796 -1.76769,-0.0542 -1.15724,-2.48646 z m 142.801965,10.98668 c -0.78272,-0.31584 -1.23283,-2.43579 -1.20407,-5.67105 l 0.0459,-5.16667 5.37583,5.91817 5.37583,5.91817 0.32824,-8.6705 c 0.18053,-4.76878 0.25254,-8.66946 0.16003,-8.66817 -0.0925,10e-4 -0.8352,0.25828 -1.65041,0.5711 -1.18574,0.45501 -1.28941,1.26697 -0.51832,4.05961 1.55212,5.62131 0.51924,5.91026 -3.51747,0.98399 -2.99265,-3.65217 -4.41555,-4.61237 -6.83495,-4.61237 -2.53238,0 -2.85285,0.24418 -1.87183,1.42623 0.65102,0.78443 1.26862,4.38024 1.37244,7.9907 0.16855,5.86097 0.40311,6.55699 2.18878,6.49482 1.1,-0.0383 1.4375,-0.29662 0.75,-0.57403 z m -55.01995,-4.95824 c 3.91867,-0.89128 13.68251,-4.08944 21.69741,-7.10702 18.31086,-6.89398 21.98223,-8.02839 30.22208,-9.33826 7.16336,-1.13874 19.86266,0.0463 27.0564,2.52471 4.42475,1.52445 4.89537,0.55254 1.15653,-2.38843 -6.83321,-5.375 -23.68128,-6.66372 -38.41345,-2.93827 -4.63748,1.17272 -14.28565,4.34968 -21.4404,7.05991 -31.12092,11.78867 -36.97869,11.77184 -68.508615,-0.19689 -17.54509,-6.6601 -27.37439,-8.97948 -38.09107,-8.98822 -9.42672,-0.008 -16.11297,1.57797 -20.8365,4.94142 -4.2648101,3.03681 -3.8380701,4.23299 0.91221,2.55699 2.19155,-0.77322 7.65072,-1.90782 12.1315,-2.52132 12.31831,-1.68661 19.5151,-0.28484 42.34334,8.24755 26.92855,10.06493 36.629235,11.59166 51.770565,8.14783 z m -15.2736,-14.52212 c -2.37576,-4.55758 -10.267565,-13.01375 -15.321725,-16.41742 -6.20534,-4.17892 -10.19625,-4.49637 -11.81667,-0.93994 -1.85235,4.06546 -8.81805,2.42763 -8.81805,-2.07337 0,-1.1387 -0.76196,-1.02213 -3.73519,0.57143 -4.46625,2.39376 -5.43713,2.4369 -11.86756,0.52727 -9.53033,-2.8302 -15.5187,-11.63912 -15.5838,-22.92383 -0.0357,-6.18262 2.10994,-12.6015 4.21223,-12.6015 1.8691,0 0.95546,-1.68756 -1.52568,-2.81805 -2.50334,-1.1406 -3.23876,-4.09319 -1.89301,-7.60016 0.85124,-2.2183 4.63192,-1.9683 7.789,0.51505 2.0622,1.62213 2.97843,1.83731 4.047,0.95048 2.25623,-1.87251 3.87501,-10.73908 3.22719,-17.67641 -0.9011,-9.64969 -3.4255,-13.41647 -7.29307,-10.88234 -1.74855,1.14569 -2.46247,1.1695 -3.88468,0.12955 -3.24945,-2.37606 -1.53429,-9.61812 2.2779,-9.61812 0.83899,0 0.0207,-1.01403 -1.81838,-2.2534 -1.8391,-1.23937 -4.2061,-3.729828 -5.26,-5.534359 -2.57512,-4.409207 -2.54243,-14.501176 0.0661,-20.398044 2.14124,-4.840577 7.9609,-10.45456 11.84924,-11.430471 6.97948,-1.751737 20.22797,2.396439 26.536,8.308566 l 2.64326,2.477363 4.09677,-2.711117 4.09678,-2.711117 3.51561,2.681486 c 2.90612,2.216603 3.34126,3.007256 2.50997,4.56055 -0.55311,1.033484 -1.00565,3.284087 -1.00565,5.00134 l 0,3.122277 -2.84974,-1.683384 c -2.79985,-1.65391 -2.94908,-1.619836 -8.52371,1.946209 l -5.67396,3.629592 -0.97629,-2.567844 c -0.53697,-1.412315 -0.9763,-2.972891 -0.9763,-3.467948 0,-1.805283 -6.55473,-8.303532 -9.70226,-9.618653 -4.80503,-2.007671 -11.56061,-1.718711 -14.53603,0.621758 -3.35071,2.635671 -5.76516,7.962679 -5.74639,12.678327 0.0207,5.21528 1.16073,6.666915 6.19698,7.891117 3.59566,0.874024 4.33864,1.47792 4.60331,3.741546 0.23767,2.032746 -0.26203,2.962486 -2.02362,3.765116 l -2.33922,1.06582 4.22503,4.40949 c 5.08534,5.30736 7.3222,11.93561 7.3222,21.69712 0,8.25087 -2.10183,12.99806 -7.98427,18.0332 -3.57601,3.06093 -3.86847,3.62278 -2.48393,4.77185 0.8798,0.73016 1.43726,2.43847 1.26876,3.88801 -0.2457,2.11367 -0.93939,2.67686 -3.80056,3.0856 -2.72023,0.3886 -3.57344,1.01845 -3.82965,2.82706 -0.75054,5.29821 8.93872,19.17294 13.3892,19.17294 0.81947,0 1.88194,-1.03099 2.36103,-2.2911 1.89368,-4.98076 7.21509,-6.00753 8.59542,-1.6585 0.51745,1.63036 0.95799,1.7663 2.70101,0.83346 4.5702,-2.4459 17.71246,1.72416 25.91958,8.22432 2.18064,1.7271 5.229195,5.35407 6.774585,8.05993 l 2.80978,4.91976 1.2908,-3.11627 c 4.21447,-10.17462 26.37095,-22.21457 33.51892,-18.21437 1.39313,0.77964 2.24476,0.45279 3.93238,-1.50917 2.70669,-3.14672 5.81195,-2.41255 7.55071,1.78519 0.67588,1.63171 1.83362,2.96675 2.57275,2.96675 4.32236,0 13.97873,-13.98017 13.24313,-19.17294 -0.25621,-1.80861 -1.10942,-2.43846 -3.82965,-2.82706 -2.72297,-0.389 -3.57334,-1.01783 -3.83036,-2.83247 -0.18169,-1.28285 0.38172,-3.1193 1.25204,-4.08099 1.46576,-1.61964 1.27934,-1.99208 -2.52896,-5.05251 -5.51418,-4.43132 -7.84322,-9.83065 -7.87076,-18.24652 -0.0281,-8.58615 3.01876,-17.01416 7.94034,-21.96406 l 3.65551,-3.67656 -2.37451,-1.0819 c -1.7966,-0.81858 -2.2977,-1.73886 -2.05891,-3.781196 0.25891,-2.214389 1.03455,-2.886533 4.31765,-3.741546 5.86443,-1.527268 6.49796,-2.213272 6.49796,-7.036163 0,-5.492581 -1.39515,-9.238691 -4.75071,-12.756083 -2.15661,-2.26062 -3.48568,-2.75 -7.4685,-2.75 -2.66476,0 -6.32673,0.619095 -8.1377,1.375767 -4.19431,1.752495 -9.45386,8.098604 -10.25609,12.374891 l -0.61966,3.30304 -4.63367,-2.695357 c -2.54852,-1.482446 -5.396,-3.162054 -6.32773,-3.732461 -1.28127,-0.784393 -2.19503,-0.583731 -3.75,0.823496 -1.13077,1.023329 -2.09344,1.678355 -2.13927,1.455612 -0.0458,-0.222744 -0.19862,-1.304988 -0.33952,-2.404988 -0.1409,-1.1 -0.56817,-3.366954 -0.94949,-5.037676 -0.59596,-2.611198 -0.27319,-3.348277 2.29903,-5.25 3.70578,-2.739802 3.50311,-2.74902 7.55793,0.343742 l 3.35117,2.556065 4.54772,-3.471351 c 14.65226,-11.184318 29.91743,-9.877044 36.29117,3.10789 4.90719,9.997207 3.04242,23.277783 -3.76264,26.796808 l -2.81826,1.45739 2.45311,2.45311 c 2.95101,2.95101 3.06637,4.56511 0.5485,7.67455 -1.87701,2.31801 -1.93498,2.32461 -4,0.45579 -2.00578,-1.8152 -2.17889,-1.82073 -4.04771,-0.12947 -4.16219,3.76673 -5.0135,19.841 -1.41894,26.79211 1.68325,3.25503 2.09626,3.31278 5.37126,0.75104 3.03177,-2.37149 6.56673,-2.57145 7.39301,-0.41821 1.32222,3.44563 0.60895,6.46019 -1.78679,7.55177 l -2.39378,1.09067 2.30814,3.40123 c 4.44148,6.54489 4.02399,16.33087 -1.06814,25.03751 -2.89418,4.94853 -7.27476,7.86958 -14.19838,9.46774 -4.59182,1.05992 -5.41816,0.97002 -8.65885,-0.94203 l -3.58258,-2.11378 -1.532,2.96255 c -1.98625,3.84099 -5.74953,4.00798 -8.13903,0.36115 -1.44406,-2.20392 -2.22628,-2.51672 -5.11947,-2.04722 -4.56017,0.74001 -13.09701,7.47029 -18.35061,14.46727 -2.34618,3.12474 -4.58538,6.06716 -4.97601,6.53871 -0.39063,0.47155 -1.2632,-0.20345 -1.93906,-1.5 z m -1.91811,-25.9665 c -1.90096,-1.58699 -6.849745,-4.65869 -10.997315,-6.82601 -9.87189,-5.15858 -13.91576,-8.24553 -17.19207,-13.12383 l -2.69025,-4.00568 -1.54446,2.20503 c -1.48717,2.12322 -1.57358,2.1337 -2.32935,0.28233 -1.14447,-2.80356 -0.9626,-24.15794 0.21511,-25.25665 0.64467,-0.60143 3.41967,2.44997 7.80956,8.58742 6.77723,9.47514 6.79504,9.51745 3.75,8.90844 -2.32217,-0.46443 -3.05956,-0.2513 -3.05956,0.88433 0,2.33458 10.1675,12.2235 13.39043,13.02355 7.55737,1.87603 11.605555,-3.60834 11.608015,-15.72619 l 0.002,-7.6564 3.75,1.08821 c 5.84267,1.69548 6.50493,2.5389 5.7815,7.36307 -0.71427,4.76312 0.75359,11.52331 2.88645,13.29342 0.77197,0.64069 2.90624,1.39779 4.74282,1.68245 4.01054,0.62162 9.83986,-2.83798 14.08923,-8.3617 3.56876,-4.63901 3.60843,-6.50621 0.11962,-5.63057 -1.46445,0.36755 -2.46177,0.25595 -2.25,-0.25177 0.80142,-1.92141 12.41134,-18.29222 12.99954,-18.33026 0.9523,-0.0616 1.85883,6.74653 1.85883,13.95995 0,11.30035 -1.76607,17.39377 -3.47799,12 -0.90311,-2.84546 -1.77597,-2.49991 -3.96828,1.57095 -2.38912,4.43633 -6.76867,7.87389 -16.9504,13.30457 -4.35528,2.32299 -9.53148,5.50098 -11.50269,7.0622 l -3.584,2.83858 -3.45629,-2.88544 z M 91.346445,157.2122 c -3.09847,-4.72887 0.93144,-10.12411 6.08495,-8.14652 1.5382,0.59026 2.072,5.99085 0.89524,9.05744 -0.94575,2.46459 -5.12591,1.91907 -6.98019,-0.91092 z m 23.003495,-7.35487 c 0.79952,-8.11387 0.86037,-8.03876 -9.45118,-11.66664 -11.116785,-3.91118 -15.213345,-9.39609 -11.801785,-15.80152 1.19825,-2.24982 3.7638,-4.59636 5.08665,-4.65246 0.4125,-0.0175 0.75,2.14846 0.75,4.81321 0,5.85184 0.8186,6.69476 11.055575,11.38413 10.90102,4.99355 14.76961,10.72019 11.65467,17.25229 -0.99035,2.07678 -2.72886,3.67801 -4.76339,4.38725 l -3.20386,1.11687 0.67332,-6.83313 z m -8.16632,-20.12549 -4.25,-1.92915 0,-7.43226 c 0,-6.8622 0.17258,-7.47851 2.25,-8.03523 5.88286,-1.57655 6.41473,-1.118 7.09829,6.11971 0.84676,8.9658 0.81489,13.25478 -0.0983,13.22804 -0.4125,-0.0121 -2.6625,-0.89008 -5,-1.95111 z m 7.75,-15.41443 c 0,-1.38802 1.125,-4.18146 2.5,-6.20764 4.66551,-6.87501 2.30817,-18.280986 -4.98016,-24.096478 -3.4788,-2.775802 -3.78011,-6.30838 -0.53807,-6.30838 3.03498,0 6.77538,3.826404 9.94939,10.178153 5.43304,10.872487 3.95242,21.208235 -3.8322,26.751375 l -3.09896,2.20666 0,-2.52369 z m -37.999995,-4.00409 c 0,-2.53463 0.3375,-4.61487 0.75,-4.62276 0.4125,-0.008 9.6375,-1.51179 20.5,-3.342 18.866865,-3.178848 19.749995,-3.243058 19.749995,-1.43599 0,1.04041 -0.64836,3.14545 -1.4408,4.67786 -1.38825,2.68458 -2.05384,2.88638 -18.249995,5.53336 -9.24506,1.51094 -17.8217,2.98359 -19.0592,3.27255 -2.08384,0.48659 -2.25,0.18507 -2.25,-4.08302 z m 50.552755,-8.23462 c 0.3794,-2.130588 0.97274,-4.165469 1.31853,-4.521967 0.34579,-0.356498 2.99121,-0.961225 5.87871,-1.343838 l 5.25,-0.695659 0,4.034826 c 0,2.219148 -0.3375,4.241408 -0.75,4.493898 -0.4125,0.2525 -3.36834,0.78476 -6.56854,1.18281 l -5.81853,0.72371 0.68983,-3.87378 z m -24.54966,-4.623788 c 0.002,-0.831823 1.67477,-1.252485 5,-1.25743 5.63041,-0.0084 6.57524,0.941763 1.8719,1.88243 -4.74535,0.94907 -6.87532,0.75535 -6.8719,-0.625 z m -1.0031,-4.501554 c -7.749265,-3.871195 -9.061265,-14.054894 -2.576385,-19.997845 3.041065,-2.786937 4.281125,-3.250601 8.693625,-3.250601 4.60597,0 5.50041,0.375147 8.51468,3.571202 3.63436,3.853537 4.96737,8.141027 1.61808,5.204375 -2.75619,-2.416625 -7.93184,-4.775577 -10.47783,-4.775577 -5.87123,0 -9.657485,5.945359 -7.331495,11.51224 1.892595,4.529641 8.559155,6.34101 12.239585,3.325619 0.815,-0.667733 1.52712,-0.318874 2.30107,1.127262 1.00034,1.869141 0.74256,2.252298 -2.39814,3.564566 -4.54221,1.897859 -6.31545,1.850737 -10.58319,-0.281241 z M 96.329925,65.345891 c -17.41176,-5.700742 -26.8682,-25.613714 -20.3883,-42.932813 2.11585,-5.655124 7.68991,-12.9636883 11.33022,-14.8559144 l 2.16178,-1.1236866 -2.13302,2.3857177 c -1.17317,1.3121443 -2.87223,3.8482173 -3.77568,5.6357173 l -1.64266,3.25 9.36806,0 9.368045,0 2.77571,-9.0485879 c 1.52663,-4.9767231 2.95624,-8.86804578 3.1769,-8.64738368 0.22066,0.2206621 1.66985,4.18002648 3.22041,8.79858728 l 2.8192,8.3973843 9.14444,0.2873 c 10.3959,0.326618 10.54921,0.103711 4.91294,-7.143287 -2.3105,-2.9708025 -2.54093,-3.6108674 -1.00379,-2.7882134 2.87986,1.5412521 7.91216,7.5312394 10.43596,12.4220044 3.33862,6.469773 3.69881,18.441553 0.78715,26.163085 -2.69887,7.157223 -9.7989,14.712778 -16.71911,17.791768 -5.88108,2.616653 -17.96686,3.33066 -23.838255,1.408322 z M 115.25432,50.111307 c 2.57233,-0.876482 4.90542,-1.963249 5.18464,-2.415036 0.439,-0.710322 -12.62704,-10.991359 -13.96878,-10.991359 -0.27174,0 -3.66401,2.312863 -7.538375,5.139696 -6.30214,4.598198 -6.8575,5.267625 -5.27124,6.353946 5.32881,3.649338 14.192815,4.434504 21.593755,1.912753 z M 93.846995,37.641052 c 2.37403,-7.922602 2.38218,-8.082823 0.5,-9.831071 -3.85789,-3.583371 -12.14122,-9.043879 -12.76814,-8.416964 -1.07086,1.07086 -0.72505,10.779269 0.51338,14.412672 1.52001,4.459541 6.61205,11.900577 8.13943,11.894222 0.66108,-0.0027 2.28798,-3.629237 3.61533,-8.058859 z m 32.504795,4.760033 c 1.38597,-1.817104 3.20887,-4.952651 4.05089,-6.967881 1.57826,-3.777319 2.124,-15.243724 0.76548,-16.083337 -1.08742,-0.672064 -14.23454,9.304152 -14.23454,10.801366 0,1.013382 2.28922,8.323284 4.47944,14.303679 0.75663,2.065973 2.27943,1.432699 4.93873,-2.053827 z"
     id="path2818" />
</svg>
